<svg xmlns="http://www.w3.org/2000/svg" width="375" viewBox="0 0 375 375" height="375" version="1.0"><defs><clipPath id="a"><path d="M 20.503906 46 L 365.503906 46 L 365.503906 244 L 20.503906 244 Z M 20.503906 46"/></clipPath><clipPath id="b"><path d="M 34 49 L 288 49 L 288 303.070312 L 34 303.070312 Z M 34 49"/></clipPath></defs><g clip-path="url(#a)"><path fill="#E1B326" d="M 357.945312 47.761719 L 299.464844 110.441406 C 297.199219 112.871094 298.484375 116.855469 301.746094 117.5 L 312.746094 119.679688 C 315.410156 120.207031 316.921875 123.082031 315.796875 125.566406 C 297.339844 166.5625 264.40625 198.359375 222.628906 215.390625 C 179.472656 232.988281 132.0625 232.722656 89.105469 214.648438 C 62.667969 203.53125 39.878906 186.476562 22.15625 164.949219 C 21.582031 164.25 20.519531 165.0625 21.03125 165.796875 C 40.1875 193.03125 66.984375 215.382812 99.949219 229.25 C 191.761719 267.882812 297.25 226.253906 338.304688 136.222656 C 339.429688 133.761719 342.519531 132.949219 344.691406 134.554688 L 354.878906 142.089844 C 357.613281 144.113281 361.496094 142.253906 361.640625 138.859375 L 365.28125 50.835938 C 365.453125 46.890625 360.636719 44.878906 357.945312 47.761719 Z M 357.945312 47.761719"/></g><g clip-path="url(#b)"><path fill="#6140A2" d="M 36.132812 167.882812 C 35.746094 167.320312 35.351562 166.777344 34.972656 166.191406 L 34.972656 148.050781 C 34.972656 140.515625 40.933594 134.324219 48.460938 134.042969 C 62.199219 133.523438 75.8125 132.246094 89.238281 130.238281 L 89.238281 202.625 C 89.203125 202.601562 89.160156 202.585938 89.113281 202.574219 C 69.160156 194.183594 51.3125 182.40625 36.132812 167.882812 Z M 155.269531 216.3125 L 155.269531 113.882812 C 137.644531 120.058594 119.511719 124.875 101.003906 128.277344 L 101.003906 207.082031 C 118.679688 213.074219 136.960938 216.148438 155.269531 216.3125 Z M 221.300781 203.84375 L 221.300781 82.917969 C 203.949219 93.320312 185.804688 102.214844 167.035156 109.535156 L 167.035156 216 C 185.417969 214.902344 203.703125 210.851562 221.300781 203.84375 Z M 287.324219 111.929688 L 287.324219 63.492188 C 287.324219 51.683594 273.597656 45.09375 264.457031 52.570312 C 254.359375 60.824219 243.875 68.492188 233.054688 75.554688 L 233.054688 198.621094 C 233.265625 198.515625 233.472656 198.417969 233.679688 198.316406 C 266.597656 182.203125 287.324219 148.578125 287.324219 111.929688 Z M 99.957031 241.816406 C 74.328125 231.027344 52.449219 215.09375 34.964844 195.734375 L 34.964844 289.582031 C 34.964844 297.328125 41.246094 303.605469 48.988281 303.605469 L 273.285156 303.605469 C 281.03125 303.605469 287.308594 297.328125 287.308594 289.582031 L 287.308594 241.816406 C 287.308594 230.90625 275.40625 224.175781 266.0625 229.800781 C 217.535156 259.027344 156.183594 265.476562 99.957031 241.816406 Z M 99.957031 241.816406"/></g></svg>